<?xml version="1.0" standalone="no"?><!--
  - /*
  - Copyright 2023 Talkweb Co., Ltd.
  -
  - This program is free software; you can redistribute it and/or
  - modify it under the terms of the GNU Lesser General Public
  - License as published by the Free Software Foundation; either
  - version 3 of the License, or (at your option) any later version.
  -
  - This program is distributed in the hope that it will be useful,
  - but WITHOUT ANY WARRANTY; without even the implied warranty of
  - MERCHANTABILITY or FITNESS FOR A PARTICULAR PURPOSE.  See the GNU
  - Lesser General Public License for more details.
  -
  - You should have received a copy of the GNU Lesser General Public License
  - along with this program; if not, write to the Free Software Foundation,
  - Inc., 51 Franklin Street, Fifth Floor, Boston, MA  02110-1301, USA.
  - */
  -->

<!DOCTYPE svg PUBLIC "-//W3C//DTD SVG 1.1//EN" "http://www.w3.org/Graphics/SVG/1.1/DTD/svg11.dtd"><svg t="1669340835942" class="icon" viewBox="0 0 1024 1024" version="1.1" xmlns="http://www.w3.org/2000/svg" p-id="1960" xmlns:xlink="http://www.w3.org/1999/xlink" width="16" height="16"><path d="M718.73545078 589.39849389H305.26454922c-20.36802471 0-32.58883953 13.23921607-22.40482717 23.42322842 15.27601854 16.29441978 197.56983966 206.73545078 206.73545077 215.90106188 11.20241359 12.22081482 35.64404324 10.18401235 45.8280556 0C542.55203706 821.59397555 729.93786436 624.02413589 741.14027795 612.82172231c10.18401235-11.20241359-3.05520371-22.40482718-22.40482718-23.42322842zM305.26454922 434.60150611h413.47090156c19.34962348 0 32.58883953-12.22081482 22.40482717-23.42322842-11.20241359-11.20241359-198.5882409-208.77225325-206.73545077-216.91946312-9.16561112-10.18401235-33.60724077-11.20241359-45.8280556 0C480.42956171 204.44282693 298.13574057 394.88385793 282.85972205 411.17827769c-10.18401235 10.18401235 2.03680247 23.42322842 22.40482718 23.42322842z" fill="#768696" p-id="1961"></path></svg>
