<?xml version="1.0" standalone="no"?><!--
  - /*
  - Copyright 2023 Talkweb Co., Ltd.
  -
  - This program is free software; you can redistribute it and/or
  - modify it under the terms of the GNU Lesser General Public
  - License as published by the Free Software Foundation; either
  - version 3 of the License, or (at your option) any later version.
  -
  - This program is distributed in the hope that it will be useful,
  - but WITHOUT ANY WARRANTY; without even the implied warranty of
  - MERCHANTABILITY or FITNESS FOR A PARTICULAR PURPOSE.  See the GNU
  - Lesser General Public License for more details.
  -
  - You should have received a copy of the GNU Lesser General Public License
  - along with this program; if not, write to the Free Software Foundation,
  - Inc., 51 Franklin Street, Fifth Floor, Boston, MA  02110-1301, USA.
  - */
  -->

<!DOCTYPE svg PUBLIC "-//W3C//DTD SVG 1.1//EN" "http://www.w3.org/Graphics/SVG/1.1/DTD/svg11.dtd"><svg t="1660728237396" class="icon" viewBox="0 0 1024 1024" version="1.1" xmlns="http://www.w3.org/2000/svg" p-id="5043" xmlns:xlink="http://www.w3.org/1999/xlink" width="200" height="200"><defs><style type="text/css">@font-face { font-family: feedback-iconfont; src: url("//at.alicdn.com/t/font_1031158_u69w8yhxdu.woff2?t=1630033759944") format("woff2"), url("//at.alicdn.com/t/font_1031158_u69w8yhxdu.woff?t=1630033759944") format("woff"), url("//at.alicdn.com/t/font_1031158_u69w8yhxdu.ttf?t=1630033759944") format("truetype"); }
</style></defs><path d="M573.2352 334.5408c27.272533 18.978133 46.830933 44.987733 59.6992 76.458667 3.072 4.881067 1.024 7.5776-5.154133 9.216-18.0224 4.8128-32.904533 8.977067-48.0256 13.2096-12.049067 3.3792-24.2688 6.792533-38.434134 10.6496-6.929067 1.9456-8.4992 2.389333-14.916266-5.461334-7.714133-9.216-13.380267-15.1552-24.200534-20.5824-32.426667-16.7936-63.829333-11.946667-93.149866 8.123734-34.986667 23.893333-53.009067 59.118933-52.497067 103.0144 0.512 43.349333 28.808533 79.189333 69.495467 85.128533 34.986667 4.881067 64.3072-8.123733 87.483733-35.771733 4.608-5.973333 8.738133-12.4928 13.892267-20.0704h-99.328c-10.820267 0-13.380267-7.0656-9.796267-16.2816 6.690133-16.7936 19.0464-44.987733 26.282667-59.050667 1.536-3.2768 5.12-8.704 12.834133-8.704h165.614933a234.769067 234.769067 0 0 1 35.6352-70.485333c37.546667-52.053333 82.8416-79.189333 144.0768-90.555734 52.497067-9.762133 101.922133-4.334933 146.705067 27.648 40.618667 29.2864 65.877333 68.846933 72.567467 120.900267 8.738133 73.181867-11.332267 132.846933-59.1872 183.808-33.9968 36.317867-75.6736 59.050667-123.562667 69.393067-9.1136 1.774933-18.2272 2.628267-27.204267 3.413333-4.7104 0.477867-9.352533 0.887467-13.9264 1.467733-46.830933-1.092267-89.565867-15.189333-125.610666-47.7184a171.6224 171.6224 0 0 1-51.438934-84.445866 230.7072 230.7072 0 0 1-21.6064 36.7616c-37.0688 51.5072-85.435733 83.490133-146.670933 92.16-50.449067 7.031467-97.28-3.2768-138.4448-35.805867-38.0928-30.344533-59.733333-70.4512-65.365333-120.354133-6.690133-59.050667 9.762133-112.196267 43.7248-158.8224 36.522667-50.414933 84.923733-82.432 144.110933-93.7984 48.366933-9.216 94.685867-3.242667 136.3968 26.555733z m345.838933 148.548267c-9.250133-53.691733-56.081067-84.036267-104.994133-72.123734-47.854933 11.400533-78.7456 43.349333-90.043733 94.344534-9.284267 42.2912 10.274133 85.0944 47.342933 102.468266 28.296533 12.970667 56.593067 11.3664 83.8656-3.2768 40.6528-22.186667 62.805333-56.900267 65.365333-103.5264a318.907733 318.907733 0 0 1-0.341333-5.802666 91.477333 91.477333 0 0 0-1.194667-12.0832z m-711.748266 26.555733c2.048 0 3.072 1.6384 3.072 3.822933l-1.024 12.970667c0 2.184533-2.048 3.822933-3.618134 3.822933l-79.1552-0.546133c-2.048 0-2.56-1.6384-1.536-3.242667l7.202134-13.550933c1.024-1.6384 3.072-3.2768 5.12-3.2768z m11.298133-49.834667c2.048 0 3.072 1.604267 2.594133 3.208534l-4.130133 13.038933c-0.512 2.1504-2.56 3.242667-4.642133 3.242667l-210.397867 0.546133c-2.048 0-2.56-1.092267-1.536-2.730667l10.820267-14.609066c1.024-1.6384 3.584-2.730667 5.666133-2.730667z m26.760533-49.902933c2.048 0 2.594133 1.6384 1.570134 3.242667l-8.772267 14.097066c-1.024 1.6384-3.584 3.2768-5.12 3.2768l-153.258667-0.546133c-2.082133 0-2.594133-1.092267-1.570133-2.730667l10.786133-14.6432c1.024-1.604267 3.618133-2.696533 5.666134-2.696533z" fill="#00ACD7" p-id="5044"></path></svg>
