<?xml version="1.0" standalone="no"?><!--
  - /*
  - Copyright 2023 Talkweb Co., Ltd.
  -
  - This program is free software; you can redistribute it and/or
  - modify it under the terms of the GNU Lesser General Public
  - License as published by the Free Software Foundation; either
  - version 3 of the License, or (at your option) any later version.
  -
  - This program is distributed in the hope that it will be useful,
  - but WITHOUT ANY WARRANTY; without even the implied warranty of
  - MERCHANTABILITY or FITNESS FOR A PARTICULAR PURPOSE.  See the GNU
  - Lesser General Public License for more details.
  -
  - You should have received a copy of the GNU Lesser General Public License
  - along with this program; if not, write to the Free Software Foundation,
  - Inc., 51 Franklin Street, Fifth Floor, Boston, MA  02110-1301, USA.
  - */
  -->

<!DOCTYPE svg PUBLIC "-//W3C//DTD SVG 1.1//EN" "http://www.w3.org/Graphics/SVG/1.1/DTD/svg11.dtd"><svg t="1660728233067" class="icon" viewBox="0 0 1024 1024" version="1.1" xmlns="http://www.w3.org/2000/svg" p-id="4899" xmlns:xlink="http://www.w3.org/1999/xlink" width="200" height="200"><defs><style type="text/css">@font-face { font-family: feedback-iconfont; src: url("//at.alicdn.com/t/font_1031158_u69w8yhxdu.woff2?t=1630033759944") format("woff2"), url("//at.alicdn.com/t/font_1031158_u69w8yhxdu.woff?t=1630033759944") format("woff"), url("//at.alicdn.com/t/font_1031158_u69w8yhxdu.ttf?t=1630033759944") format("truetype"); }
</style></defs><path d="M512 870.4c-9.557333 0-18.432-2.628267-26.7264-7.236267l-84.5824-52.0192c-12.731733-7.2704-6.3488-9.898667-2.525867-11.195733 17.169067-5.9392 20.343467-7.2704 38.161067-17.783467 1.911467-1.3312 4.437333-0.682667 6.3488 0.682667l64.853333 40.1408c2.56 1.3312 5.7344 1.3312 7.645867 0l253.781333-152.132267c2.525867-1.297067 3.822933-3.925333 3.822934-7.236266v-303.581867c0-3.2768-1.297067-5.905067-3.822934-7.236267l-253.781333-151.4496c-2.525867-1.3312-5.7344-1.3312-7.611733 0l-253.781334 151.4496c-2.56 1.3312-3.822933 4.608-3.822933 7.236267v303.581867c0 2.628267 1.262933 5.9392 3.822933 7.236266l69.290667 41.506134c37.546667 19.7632 61.098667-3.310933 61.098667-26.350934V386.389333c0-3.959467 3.1744-7.918933 7.611733-7.918933h32.426667a7.850667 7.850667 0 0 1 7.645866 7.918933v299.6224c0 52.0192-27.3408 82.3296-75.0592 82.3296-14.609067 0-26.077867 0-58.504533-16.4864L231.5264 712.362667A55.978667 55.978667 0 0 1 204.8 664.234667v-303.547734c0-19.797333 10.171733-38.229333 26.7264-48.093866l253.7472-152.098134c15.906133-9.216 37.546667-9.216 53.4528 0l253.7472 152.098134c16.554667 9.898667 26.7264 28.330667 26.7264 48.093866v303.547734a55.978667 55.978667 0 0 1-26.7264 48.093866l-253.7472 152.098134A63.214933 63.214933 0 0 1 512 870.4z m78.2336-208.759467c-111.274667 0-134.212267-52.667733-134.212267-97.450666 0-3.959467 3.1744-7.918933 7.645867-7.918934h33.0752c3.822933 0 6.997333 2.6624 6.997333 6.587734 5.085867 34.9184 19.694933 52.0192 87.1424 52.0192 53.418667 0 76.322133-12.4928 76.322134-42.120534 0-17.134933-6.382933-29.627733-89.7024-38.229333-69.290667-7.202133-112.571733-23.005867-112.571734-80.315733 0-53.3504 43.246933-84.957867 115.746134-84.957867 81.408 0 121.514667 29.013333 126.5664 92.194133a10.888533 10.888533 0 0 1-1.877334 5.9392c-1.297067 1.3312-3.208533 2.628267-5.12 2.628267h-33.041066a7.509333 7.509333 0 0 1-6.997334-5.9392c-7.645867-36.181333-27.374933-48.059733-79.530666-48.059733-58.504533 0-65.501867 21.060267-65.501867 36.864 0 19.114667 8.260267 25.053867 87.1424 35.566933 78.2336 10.5472 115.131733 25.7024 115.131733 82.3296-0.648533 57.9584-46.421333 90.862933-127.214933 90.862933z" fill="#539E43" p-id="4900"></path></svg>
